HIERARCHY
ROOT Hips
{
	OFFSET 0.000000 0.000000 0.000000
	CHANNELS 6 Xposition Yposition Zposition Zrotation Yrotation Xrotation 
	JOINT LHipJoint
	{
		OFFSET 0.000000 0.000000 0.000000
		CHANNELS 3 Zrotation Yrotation Xrotation
		JOINT LeftUpLeg
		{
			OFFSET 1.363060 -1.794630 0.839290
			CHANNELS 3 Zrotation Yrotation Xrotation
			JOINT LeftLeg
			{
				OFFSET 2.448110 -6.726130 0.000000
				CHANNELS 3 Zrotation Yrotation Xrotation
				JOINT LeftFoot
				{
					OFFSET 2.562200 -7.039590 0.000000
					CHANNELS 3 Zrotation Yrotation Xrotation
					JOINT LeftToeBase
					{
						OFFSET 0.157640 -0.433110 2.322550
						CHANNELS 3 Zrotation Yrotation Xrotation
						End Site
						{
							OFFSET 0.000000 0.000000 0.000000
						}
					}
				}
			}
		}
	}
	JOINT RHipJoint
	{
		OFFSET 0.000000 0.000000 0.000000
		CHANNELS 3 Zrotation Yrotation Xrotation
		JOINT RightUpLeg
		{
			OFFSET -1.305520 -1.794630 0.839290
			CHANNELS 3 Zrotation Yrotation Xrotation
			JOINT RightLeg
			{
				OFFSET -2.542530 -6.985550 0.000000
				CHANNELS 3 Zrotation Yrotation Xrotation
				JOINT RightFoot
				{
					OFFSET -2.568260 -7.056230 0.000000
					CHANNELS 3 Zrotation Yrotation Xrotation
					JOINT RightToeBase
					{
						OFFSET -0.164730 -0.452590 2.363150
						CHANNELS 3 Zrotation Yrotation Xrotation
						End Site
						{
							OFFSET 0.000000 0.000000 0.000000
						}
					}
				}
			}
		}
	}
	JOINT LowerBack
	{
		OFFSET 0.000000 0.000000 0.000000
		CHANNELS 3 Zrotation Yrotation Xrotation
		JOINT Spine
		{
			OFFSET 0.028270 2.035590 -0.193380
			CHANNELS 3 Zrotation Yrotation Xrotation
			JOINT Spine1
			{
				OFFSET 0.056720 2.048850 -0.042750
				CHANNELS 3 Zrotation Yrotation Xrotation
				JOINT Neck
				{
					OFFSET 0.000000 0.000000 0.000000
					CHANNELS 3 Zrotation Yrotation Xrotation
					JOINT Neck1
					{
						OFFSET -0.054170 1.746240 0.172020
						CHANNELS 3 Zrotation Yrotation Xrotation
						JOINT Head
						{
							OFFSET 0.104070 1.761360 -0.123970
							CHANNELS 3 Zrotation Yrotation Xrotation
							End Site
							{
								OFFSET 0.000000 0.000000 0.000000
							}
						}
					}
				}
				JOINT LeftShoulder
				{
					OFFSET 0.000000 0.000000 0.000000
					CHANNELS 3 Zrotation Yrotation Xrotation
					JOINT LeftArm
					{
						OFFSET 3.362410 1.200890 -0.311210
						CHANNELS 3 Zrotation Yrotation Xrotation
						JOINT LeftForeArm
						{
							OFFSET 4.983000 -0.000000 -0.000000
							CHANNELS 3 Zrotation Yrotation Xrotation
							JOINT LeftHand
							{
								OFFSET 3.483560 -0.000000 -0.000000
								CHANNELS 3 Zrotation Yrotation Xrotation
								JOINT LeftFingerBase
								{
									OFFSET 0.000000 0.000000 0.000000
									CHANNELS 3 Zrotation Yrotation Xrotation
									JOINT LeftHandIndex1
									{
										OFFSET 0.715260 -0.000000 -0.000000
										CHANNELS 3 Zrotation Yrotation Xrotation
										End Site
										{
											OFFSET 0.000000 0.000000 0.000000
										}
									}
								}
								JOINT LThumb
								{
									OFFSET 0.000000 0.000000 0.000000
									CHANNELS 3 Zrotation Yrotation Xrotation
									End Site
									{
										OFFSET 0.000000 0.000000 0.000000
									}
								}
							}
						}
					}
				}
				JOINT RightShoulder
				{
					OFFSET 0.000000 0.000000 0.000000
					CHANNELS 3 Zrotation Yrotation Xrotation
					JOINT RightArm
					{
						OFFSET -3.136600 1.374050 -0.404650
						CHANNELS 3 Zrotation Yrotation Xrotation
						JOINT RightForeArm
						{
							OFFSET -5.241900 -0.000000 -0.000000
							CHANNELS 3 Zrotation Yrotation Xrotation
							JOINT RightHand
							{
								OFFSET -3.444170 -0.000000 -0.000000
								CHANNELS 3 Zrotation Yrotation Xrotation
								JOINT RightFingerBase
								{
									OFFSET 0.000000 0.000000 0.000000
									CHANNELS 3 Zrotation Yrotation Xrotation
									JOINT RightHandIndex1
									{
										OFFSET -0.622530 -0.000000 -0.000000
										CHANNELS 3 Zrotation Yrotation Xrotation
										End Site
										{
											OFFSET 0.000000 0.000000 0.000000
										}
									}
								}
								JOINT RThumb
								{
									OFFSET 0.000000 0.000000 0.000000
									CHANNELS 3 Zrotation Yrotation Xrotation
									End Site
									{
										OFFSET 0.000000 0.000000 0.000000
									}
								}
							}
						}
					}
				}
			}
		}
	}
}
MOTION
Frames: 6
Frame Time: 0.008333
0.924246 17.864891 -14.804258 -0.136748 -4.600140 7.802008 3.473819 2.928954 1.034158 -24.806784 -7.064700 -10.312437 0.687720 5.684716 18.566318 -0.370342 3.160258 -4.106077 0.005400 0.476100 1.308300 -5.743299 -3.570876 0.573839 29.200596 12.147151 -8.084147 -1.881191 -6.237092 20.435161 0.367961 -3.903930 -6.060470 -0.108400 -2.122600 5.844500 -0.549644 0.892577 5.164239 1.147208 0.782388 -0.786180 3.315620 0.874437 -4.226366 -7.841702 -2.058924 -13.270794 3.100717 -1.728844 20.939191 2.791000 -1.501900 11.646700 -6.931425 3.417825 -2.283536 -83.825598 5.463186 18.653787 13.845056 -24.791907 -3.557721 -0.661760 -2.520121 5.216407 17.704722 20.624629 7.382900 -7.125000 0.000000 0.000000 -11.534000 53.951300 -2.564200 5.261270 -2.835886 -2.181106 82.754091 -4.424827 15.652769 -17.717360 26.200331 -5.175398 0.439490 -0.538830 3.411865 -7.695640 14.598548 -2.140500 7.125000 0.000000 0.000000 13.090300 -14.998400 9.512200 
0.922545 17.868996 -14.810764 0.007007 -4.411198 7.935443 3.475777 2.926682 1.033606 -24.929242 -7.119619 -10.401565 0.668329 5.635726 18.417075 -0.335774 2.926005 -3.847696 0.012600 0.725900 1.994800 -5.739441 -3.574358 0.586136 29.030523 12.110310 -8.389067 -1.897949 -6.289986 20.566404 0.372890 -3.966239 -6.133391 -0.104900 -2.088200 5.749400 -0.701773 0.816929 5.090661 1.133870 0.668821 -0.830149 3.383995 0.824499 -4.276948 -7.885236 -2.032104 -13.053375 3.164309 -1.703835 20.873546 2.828900 -1.487900 11.569500 -6.930330 3.426829 -2.290752 -83.832930 5.591277 18.702898 13.896440 -24.876978 -3.587315 -0.669605 -2.516435 5.162145 17.822925 20.544007 7.413300 -7.125000 0.000000 0.000000 -11.367700 53.891100 -2.509700 5.253355 -2.833059 -2.178320 82.765358 -4.470037 15.578307 -17.695353 26.172388 -5.161483 0.441003 -0.559655 3.515577 -7.710654 14.839275 -2.181500 7.125000 0.000000 0.000000 13.068800 -14.741700 9.569600 
0.917239 17.873200 -14.821475 0.110532 -4.058943 8.197403 3.478300 2.917775 1.035318 -24.958800 -7.302772 -10.712707 0.656945 5.622066 18.346155 -0.292573 2.646717 -3.569876 0.018200 0.870500 2.392600 -5.740959 -3.575543 0.607876 28.923550 12.162124 -8.752432 -1.903068 -6.318750 20.617642 0.403030 -4.204285 -6.243806 -0.106500 -2.103800 5.792600 -0.859929 0.689974 4.982679 1.157253 0.484368 -0.928241 3.537853 0.745386 -4.406521 -8.039410 -2.034355 -12.941335 3.276526 -1.689320 20.948080 2.904400 -1.488300 11.583600 -6.931675 3.438612 -2.302528 -83.886698 5.722264 18.694553 13.898532 -24.880784 -3.586481 -0.673873 -2.521611 5.043186 17.926721 20.573743 7.472200 -7.125000 0.000000 0.000000 -11.268200 53.946900 -2.502800 5.249270 -2.825719 -2.183028 82.735085 -4.570581 15.468533 -17.663749 26.130826 -5.141035 0.444132 -0.576895 3.625430 -7.753149 15.031507 -2.223300 7.125000 0.000000 0.000000 13.030300 -14.534600 9.599000 
0.914436 17.874801 -14.825980 0.102730 -3.870263 8.390135 3.479716 2.912695 1.036510 -24.890690 -7.426392 -10.911079 0.648087 5.612068 18.295297 -0.270436 2.520609 -3.528163 0.010300 0.655000 1.799800 -5.742726 -3.575878 0.625769 28.936127 12.226526 -8.992826 -1.906465 -6.340121 20.658031 0.426543 -4.371024 -6.259597 -0.107000 -2.108900 5.806800 -0.855918 0.648726 4.936511 1.160176 0.426958 -0.997245 3.541768 0.722627 -4.513734 -8.096354 -2.079767 -13.034421 3.353358 -1.744783 21.145852 2.939200 -1.515600 11.700500 -6.939510 3.443677 -2.305653 -83.862926 5.754390 18.587006 13.767913 -24.688279 -3.532769 -0.733289 -2.452948 4.844029 18.381143 19.383866 7.307700 -7.125000 0.000000 0.000000 -10.227800 52.771400 -1.972400 5.244589 -2.822532 -2.192994 82.782308 -4.683796 15.334135 -17.712198 26.194903 -5.162060 0.461308 -0.608417 3.771454 -7.976830 15.452190 -2.354400 7.125000 0.000000 0.000000 12.854900 -14.078200 9.591000 
0.913736 17.876003 -14.826981 0.092558 -3.860553 8.395141 3.480628 2.913003 1.035015 -24.867007 -7.456580 -10.878534 0.644656 5.604705 18.274233 -0.276171 2.568856 -3.630523 0.005000 0.456500 1.254300 -5.742097 -3.573957 0.626508 28.948393 12.259574 -9.000978 -1.909930 -6.350594 20.687066 0.428664 -4.386479 -6.261794 -0.118000 -2.214300 6.098300 -0.835979 0.691723 5.038184 1.138244 0.487875 -0.979237 3.476767 0.750025 -4.528838 -8.091821 -2.182793 -13.264843 3.370634 -1.879376 21.289266 2.927400 -1.574400 11.830100 -6.943553 3.437302 -2.301795 -83.769640 5.644815 18.657278 13.674191 -24.550569 -3.500847 -0.779402 -2.383798 4.722182 18.663636 18.266685 7.066700 -7.125000 0.000000 0.000000 -9.455900 51.622000 -1.553700 5.239636 -2.817391 -2.196350 82.862233 -4.651464 15.224173 -17.798912 26.305289 -5.196900 0.500890 -0.669103 3.913734 -8.472271 16.287450 -2.641700 7.125000 0.000000 0.000000 12.477400 -13.166300 9.541300 
0.913535 17.877404 -14.826881 0.101610 -3.911510 8.350352 3.481571 2.913025 1.029535 -24.894091 -7.353752 -10.862875 0.645795 5.604526 18.278087 -0.278697 2.583308 -3.636562 0.006500 0.519300 1.427000 -5.742349 -3.569567 0.623916 28.942718 12.350805 -8.920888 -1.913841 -6.359936 20.717650 0.430289 -4.415178 -6.338092 -0.129900 -2.323100 6.399500 -0.864973 0.733514 5.072266 1.121517 0.543768 -0.926954 3.452177 0.772545 -4.444032 -8.009565 -2.211427 -13.312021 3.315865 -1.931141 21.298861 2.882200 -1.594000 11.843100 -6.939160 3.426842 -2.293373 -83.715963 5.461940 18.765471 13.704156 -24.592894 -3.515261 -0.746989 -2.403646 5.005275 18.289654 18.720407 7.051500 -7.125000 0.000000 0.000000 -10.041300 52.033200 -1.753300 5.236029 -2.816882 -2.193178 82.904452 -4.588691 15.219126 -17.870197 26.398764 -5.232735 0.515170 -0.687904 3.949544 -8.651712 16.571915 -2.746300 7.125000 0.000000 0.000000 12.343900 -12.855400 9.516600 
